PathFileType	4	(X/Y/Z)	
DataRate	CameraRate	NumFrames	NumMarkers	Units	OrigDataRate	OrigDataStartFrame	OrigNumFrames
100	100	4	41	m	100	82	110
Frame#	Time	LELB			LSHO			RSHO			LUPA			LBHD			RUPA			RBHD			C7			RWRB			LWRB			RELB			RBAK			LANK			LKNE			LPSI			T10			LBTO			RPSI			RKNE			LTIB			RTIB			LTHI			RBTO			RTOE			RANK			RHEE			RTHI			LHEE			LFRM			LWRA			RFRM			LFIN			RFIN			RFHD			RWRA			RASI			LTOE			STRN			CLAV			LASI			LFHD			
		X1	Y1	Z1	X2	Y2	Z2	X3	Y3	Z3	X4	Y4	Z4	X5	Y5	Z5	X6	Y6	Z6	X7	Y7	Z7	X8	Y8	Z8	X9	Y9	Z9	X10	Y10	Z10	X11	Y11	Z11	X12	Y12	Z12	X13	Y13	Z13	X14	Y14	Z14	X15	Y15	Z15	X16	Y16	Z16	X17	Y17	Z17	X18	Y18	Z18	X19	Y19	Z19	X20	Y20	Z20	X21	Y21	Z21	X22	Y22	Z22	X23	Y23	Z23	X24	Y24	Z24	X25	Y25	Z25	X26	Y26	Z26	X27	Y27	Z27	X28	Y28	Z28	X29	Y29	Z29	X30	Y30	Z30	X31	Y31	Z31	X32	Y32	Z32	X33	Y33	Z33	X34	Y34	Z34	X35	Y35	Z35	X36	Y36	Z36	X37	Y37	Z37	X38	Y38	Z38	X39	Y39	Z39	X40	Y40	Z40	X41	Y41	Z41	X42	Y42	Z42	X43	Y43	Z43	

83	0.82	0.536682250976563	1.19410119628906	-1.0369851789212	0.443816558837891	1.52972631835938	-1.05352851769684	0.063673957824707	1.52130200195312	-1.05549999902008	0.494443145751953	1.38740393066406	-1.05176854607818	0.328960113525391	1.66404028320313	-1.06227476403473	-0.00760803508758545	1.25717358398437	-1.04921884057281	0.178518417358398	1.67109362792969	-1.06390493676422	0.248205810546875	1.56512084960938	-1.11531443688629	0.00291278409957886	0.897045288085938	-0.970268224689939	0.537045227050781	0.918142395019531	-0.997926043484189	-0.0227015857696533	1.16324877929688	-1.03475042245147	0.106711029052734	1.46282849121094	-1.15077844140289	0.372269805908203	0.114389892578125	-0.993866970989682	0.423066284179688	0.55381689453125	-0.869285635921933	0.294913269042969	1.10218579101562	-1.16147543236969	0.267446411132812	1.28543811035156	-1.18666351220367	0.346656433105469	0.0537207527160644	-0.798362166378476	0.227216018676758	1.09866296386719	-1.15426853844879	0.147437057495117	0.506844604492187	-1.0666941594815	0.423897705078125	0.400325866699219	-0.895455573055722	0.146514282226563	0.347003814697266	-1.09938899895904	0.436808685302734	0.707932495117187	-0.904846831295468	0.22958039855957	0.0376538772583008	-0.923870738003232	0.208700103759766	0.0401401138305664	-0.981376973245122	0.210812683105469	0.0661307220458985	-1.13943829247711	0.257413421630859	0.0325636672973633	-1.19812826440094	0.122722801208496	0.667910461425781	-1.03139597222564	0.332682708740234	0.0904098739624023	-1.06266371056793	0.528854309082031	0.958205688476563	-0.96119163987396	0.480190887451172	0.928185363769531	-0.946627467129209	-0.00174199604988098	0.952037292480469	-0.949746573421933	0.519718811035156	0.854568237304688	-0.900513464901425	0.017429931640625	0.827676452636719	-0.871267050716855	0.18890087890625	1.74413269042969	-0.930903799984433	0.055010425567627	0.918289855957031	-0.916763861629941	0.133186157226562	1.06121350097656	-0.972996616337277	0.364951416015625	0.0569705581665039	-0.854245123836972	0.268203186035156	1.29914306640625	-0.948436694118955	0.257253265380859	1.4310048828125	-0.97022427079437	0.394240356445313	1.06448071289063	-0.991268467876889	0.316686767578125	1.73764428710938	-0.925117243740537
84	0.83	0.536552062988281	1.19254870605469	-1.03734465681304	0.443791778564453	1.52824011230469	-1.05259153639067	0.0636360015869141	1.52031066894531	-1.05331881605376	0.494240112304688	1.38571423339844	-1.05174889265288	0.329155364990234	1.66253210449219	-1.06086568723906	-0.0082396354675293	1.25634484863281	-1.04599701200713	0.178840591430664	1.66982934570313	-1.06210311399687	0.248017532348633	1.56386755371094	-1.11376339231719	0.00293179750442505	0.896889221191406	-0.964363987791429	0.537542358398438	0.916351440429688	-0.999829371321092	-0.0234991474151611	1.16255285644531	-1.03099790846098	0.106126815795898	1.461888671875	-1.14878763853301	0.372598388671875	0.105579727172852	-0.963189989912401	0.421992156982422	0.553571533203125	-0.865824869978319	0.294126434326172	1.10076110839844	-1.16073972593535	0.266931060791016	1.28434533691406	-1.18569283567656	0.349517517089844	0.0569459075927734	-0.763835963117967	0.226630264282227	1.09712744140625	-1.15323089109648	0.147658569335937	0.506718353271484	-1.07428589140166	0.423335662841797	0.398094390869141	-0.884232127058397	0.146790252685547	0.347306396484375	-1.10907454954375	0.436208557128906	0.708089782714844	-0.902479327070604	0.229785705566406	0.0373378982543945	-0.935561835157762	0.208748657226562	0.0399535598754883	-0.993177752959619	0.210996200561523	0.0666984481811524	-1.15117331968535	0.257784362792969	0.0332631492614746	-1.20985741697539	0.123086067199707	0.667118225097656	-1.03552442442168	0.332177337646484	0.0773849334716797	-1.02973670469512	0.529560363769531	0.956248168945313	-0.962782902586351	0.481063446044922	0.926054809570312	-0.948026652204881	-0.0016402782201767	0.9520400390625	-0.944297118055711	0.521043212890625	0.852255737304688	-0.902578051435838	0.0182308540344238	0.828621032714844	-0.864695338117967	0.18942155456543	1.74273400878906	-0.929037440168748	0.0553958129882813	0.918823059082031	-0.911455324995408	0.132568710327148	1.05975964355469	-0.971806366789232	0.367302185058594	0.0569645500183105	-0.819931086408983	0.268235076904297	1.29744836425781	-0.947392535078416	0.257381011962891	1.42938244628906	-0.968873490202317	0.393995910644531	1.06409741210937	-0.990180178987871	0.31729833984375	1.73611010742187	-0.923287890303025
85	0.84	0.536405029296875	1.19083764648438	-1.03743590808133	0.443790924072266	1.52651867675781	-1.0516559627078	0.0636853866577149	1.51912731933594	-1.05112842440824	0.494096008300781	1.38370092773438	-1.05194843173246	0.329291931152344	1.66074548339844	-1.05951665377836	-0.00875680255889893	1.25528088378906	-1.04272159457425	0.179209884643555	1.66829895019531	-1.06033207583646	0.247899139404297	1.56248266601563	-1.11212895083646	0.00294319915771484	0.896553100585938	-0.958531630279821	0.538074645996094	0.914309997558594	-1.00162560820798	-0.0242328796386719	1.16166467285156	-1.02719439196805	0.105701316833496	1.46069763183594	-1.14680028414945	0.372779663085938	0.0976056060791016	-0.931932402374548	0.420961761474609	0.552583679199219	-0.863202078583044	0.293319702148438	1.09903942871094	-1.15989174533109	0.266343566894531	1.28307653808594	-1.18457221102933	0.352136627197266	0.0611357040405273	-0.729796149017614	0.226033172607422	1.09539782714844	-1.15201135897855	0.147878631591797	0.506629119873047	-1.08196028781156	0.422946380615234	0.39569189453125	-0.873682028534216	0.146969970703125	0.347778503417969	-1.11879418063382	0.435562805175781	0.707603271484375	-0.900648840668005	0.229935989379883	0.0370823554992676	-0.947275015594762	0.208712661743164	0.0398608818054199	-1.00503131377916	0.21082731628418	0.0679375305175781	-1.16316144442777	0.258093811035156	0.0339323425292969	-1.22157831454496	0.123543792724609	0.666256774902344	-1.03954403567533	0.331895080566406	0.065746467590332	-0.996163479568762	0.530264831542969	0.954071105957031	-0.964226450683874	0.481918731689453	0.923645385742188	-0.949375063659948	-0.00152518427371979	0.951856018066406	-0.938901167633337	0.522266174316406	0.849600341796875	-0.904627211334509	0.0190084533691406	0.829259033203125	-0.858209402801794	0.189937576293945	1.74110900878906	-0.92722379183988	0.0558819122314453	0.919031311035156	-0.906199087860387	0.132122650146484	1.05810778808594	-0.970408098938268	0.369622680664063	0.058047420501709	-0.785839850189489	0.268358367919922	1.29553942871094	-0.946323363067907	0.257587127685547	1.427546875	-0.96748814654569	0.393414581298828	1.06258679199219	-0.990005861999792	0.317876312255859	1.734447265625	-0.921458739044469
86	0.85	0.536305114746094	1.18883605957031	-1.03740001167507	0.443842010498047	1.52456457519531	-1.0507080103323	0.0638308753967285	1.51773083496094	-1.04894508613796	0.49405615234375	1.38168676757813	-1.05186905540676	0.329658416748047	1.65890808105469	-1.05782797874661	-0.00917483043670654	1.25401159667969	-1.03941325248928	0.179638031005859	1.66648291015625	-1.05859351219387	0.247942443847656	1.56084692382813	-1.1105355707571	0.00296108365058899	0.896013305664063	-0.952767977373316	0.538643188476563	0.912044128417969	-1.00326960529537	-0.0248573913574219	1.16055859375	-1.02335398163052	0.105461463928223	1.45921752929687	-1.14485796608181	0.373221740722656	0.0913326034545898	-0.900259546892359	0.419853271484375	0.550949096679688	-0.861546175615503	0.292431762695313	1.09708520507813	-1.15895300544949	0.265781036376953	1.28152062988281	-1.18349856819363	0.3549814453125	0.0666630706787109	-0.696214342729761	0.225456741333008	1.09350903320312	-1.15073156990261	0.148079559326172	0.506556579589844	-1.08956299080105	0.422542785644531	0.392727386474609	-0.863641695635034	0.147156631469727	0.348231353759766	-1.12847033180447	0.435051544189453	0.706437072753906	-0.899398653642847	0.229984771728516	0.0368711814880371	-0.958984064714624	0.2085693359375	0.0398030090332031	-1.01688626159878	0.211511947631836	0.0678119125366211	-1.17459880317898	0.258371856689453	0.034629093170166	-1.23331372322292	0.123644561767578	0.665502380371094	-1.04363739456387	0.332112731933594	0.0558652992248535	-0.962549063341333	0.530965576171875	0.951652770996094	-0.965522108690454	0.482721405029297	0.920985046386719	-0.950675371782495	-0.00138744854927063	0.951488220214844	-0.933567865984155	0.523382690429688	0.846676513671875	-0.906591272966577	0.0197682456970215	0.8296103515625	-0.851830645219995	0.190463195800781	1.73931726074219	-0.925439234392359	0.056372688293457	0.918883911132813	-0.901012995378687	0.131839599609375	1.05626025390625	-0.968746588365747	0.371857940673828	0.0604244575500488	-0.751995592729761	0.268566497802734	1.2934462890625	-0.945202540056421	0.257871643066406	1.42553820800781	-0.96606290687771	0.393564788818359	1.06191125488281	-0.98871688331814	0.318458892822266	1.73261389160156	-0.9196630884573
